PathFileType	3	(X/Y/Z)	feet_movements_1__fused_aligned.trc
DataRate	CameraRate	NumFrames	NumMarkers	Units	OrigDataRate	OrigDataStartFrame	OrigNumFrames
100.0	100.0	18	19	mm	100.0	1553	1830
Frame#	Time	pelvis			neck			head			hip_left			hip_right			knee_left			knee_right			ankle_left			ankle_right			heel_left			heel_right			toe_left			toe_right			shoulder_left			shoulder_right			elbow_left			elbow_right			wrist_left			wrist_right			
		X1	Y1	Z1	X2	Y2	Z2	X3	Y3	Z3	X4	Y4	Z4	X5	Y5	Z5	X6	Y6	Z6	X7	Y7	Z7	X8	Y8	Z8	X9	Y9	Z9	X10	Y10	Z10	X11	Y11	Z11	X12	Y12	Z12	X13	Y13	Z13	X14	Y14	Z14	X15	Y15	Z15	X16	Y16	Z16	X17	Y17	Z17	X18	Y18	Z18	X19	Y19	Z19	
1553	15.52000	114.675590	956.354930	507.157649	183.866787	1480.826867	542.513275	203.214285	1585.073491	415.432002	41.276492	978.813848	483.675332	188.074585	933.896015	530.640073	84.663944	1126.610465	83.294472	187.624725	525.804739	399.210960	86.971633	723.829185	60.666339	102.601654	133.737586	465.936464	80.981850	686.690578	100.860429	85.182690	88.814949	502.694786	131.361309	595.920168	-86.772774	141.618646	52.306014	290.459747	0.158688	1444.945959	530.835332	352.306087	1432.869733	614.075701	-160.877863	1230.808633	427.569221	459.356347	1182.545754	604.019731	-271.924067	1096.567564	245.310850	533.050743	1093.806189	390.758257
1554	15.53000	114.465556	956.341380	506.516178	184.076403	1480.649097	542.002781	203.514284	1584.914919	414.919827	41.100795	978.853559	483.002064	187.830249	933.829204	530.030365	84.824520	1126.646894	82.574737	187.496256	525.812434	398.489711	86.732554	723.809166	59.315962	102.378694	133.858602	465.475224	80.571872	686.943831	99.750719	84.947080	88.978758	502.281823	131.834571	593.781767	-87.320785	141.455950	52.160636	290.119456	0.305446	1444.839142	530.342132	352.596158	1432.460330	613.405991	-160.770249	1230.647355	426.977061	459.443597	1181.738902	602.170297	-271.659604	1096.507666	244.545303	532.015376	1093.581518	387.880029
1555	15.54000	114.255522	956.327830	505.874708	184.286019	1480.471327	541.492287	203.814283	1584.756347	414.407653	40.925097	978.893270	482.328796	187.585912	933.762392	529.420656	84.985097	1126.683324	81.855002	187.367787	525.820129	397.768462	86.493475	723.789147	57.965586	102.155733	133.979618	465.013983	80.161894	687.197085	98.641008	84.711470	89.142567	501.868859	132.307833	591.643366	-87.868796	141.293253	52.015258	289.779166	0.452203	1444.732324	529.848932	352.886230	1432.050927	612.736280	-160.662635	1230.486076	426.384900	459.530847	1180.932051	600.320863	-271.395140	1096.447768	243.779755	530.980009	1093.356847	385.001801
1556	15.55000	114.045487	956.314280	505.233237	184.495634	1480.293557	540.981793	204.114282	1584.597775	413.895479	40.749400	978.932980	481.655528	187.341576	933.695580	528.810947	85.145673	1126.719753	81.135267	187.239317	525.827824	397.047213	86.254396	723.769128	56.615209	101.932773	134.100634	464.552742	79.751916	687.450339	97.531298	84.475860	89.306375	501.455895	132.781095	589.504965	-88.416807	141.130557	51.869880	289.438875	0.598960	1444.625507	529.355732	353.176301	1431.641524	612.066570	-160.555021	1230.324798	425.792739	459.618097	1180.125200	598.471429	-271.130677	1096.387870	243.014207	529.944642	1093.132175	382.123574
1557	15.56000	113.835453	956.300730	504.591767	184.705250	1480.115787	540.471299	204.414281	1584.439203	413.383305	40.573703	978.972691	480.982260	187.097239	933.628769	528.201238	85.306249	1126.756183	80.415532	187.110848	525.835520	396.325964	86.015317	723.749109	55.264832	101.709813	134.221649	464.091501	79.341937	687.703592	96.421587	84.240250	89.470184	501.042932	133.254357	587.366564	-88.964818	140.967861	51.724502	289.098584	0.745717	1444.518690	528.862532	353.466372	1431.232120	611.396860	-160.447408	1230.163520	425.200578	459.705348	1179.318349	596.621995	-270.866213	1096.327972	242.248660	528.909274	1092.907504	379.245346
1558	15.57000	113.625419	956.287180	503.950296	184.914866	1479.938017	539.960805	204.714281	1584.280631	412.871130	40.398005	979.012402	480.308992	186.852903	933.561957	527.591529	85.466825	1126.792612	79.695797	186.982379	525.843215	395.604715	85.776238	723.729090	53.914456	101.486852	134.342665	463.630260	78.931959	687.956846	95.311876	84.004640	89.633992	500.629968	133.727619	585.228163	-89.512829	140.805165	51.579124	288.758293	0.892475	1444.411872	528.369333	353.756444	1430.822717	610.727150	-160.339794	1230.002241	424.608417	459.792598	1178.511498	594.772561	-270.601750	1096.268074	241.483112	527.873907	1092.682833	376.367118
1559	15.58000	113.415385	956.273630	503.308826	185.124482	1479.760247	539.450311	205.014280	1584.122059	412.358956	40.222308	979.052112	479.635724	186.608566	933.495145	526.981820	85.627401	1126.829042	78.976063	186.853910	525.850910	394.883466	85.537159	723.709071	52.564079	101.263892	134.463681	463.169019	78.521981	688.210099	94.202166	83.769031	89.797801	500.217004	134.200881	583.089762	-90.060841	140.642469	51.433747	288.418003	1.039232	1444.305055	527.876133	354.046515	1430.413314	610.057439	-160.232180	1229.840963	424.016256	459.879848	1177.704647	592.923127	-270.337286	1096.208176	240.717564	526.838540	1092.458162	373.488890
1560	15.59000	113.205350	956.260081	502.667355	185.334097	1479.582477	538.939818	205.314279	1583.963486	411.846782	40.046611	979.091823	478.962456	186.364230	933.428333	526.372111	85.787978	1126.865471	78.256328	186.725441	525.858605	394.162217	85.298080	723.689051	51.213703	101.040931	134.584697	462.707778	78.112003	688.463353	93.092455	83.533421	89.961610	499.804041	134.674143	580.951361	-90.608852	140.479772	51.288369	288.077712	1.185989	1444.198237	527.382933	354.336586	1430.003911	609.387729	-160.124566	1229.679684	423.424095	459.967098	1176.897796	591.073693	-270.072823	1096.148278	239.952017	525.803173	1092.233491	370.610662
1561	15.60000	112.995316	956.246531	502.025885	185.543713	1479.404707	538.429324	205.614278	1583.804914	411.334607	39.870913	979.131534	478.289188	186.119893	933.361522	525.762402	85.948554	1126.901901	77.536593	186.596972	525.866300	393.440968	85.059001	723.669032	49.863326	100.817971	134.705713	462.246537	77.702025	688.716606	91.982745	83.297811	90.125418	499.391077	135.147405	578.812960	-91.156863	140.317076	51.142991	287.737421	1.332747	1444.091420	526.889733	354.626657	1429.594508	608.718019	-160.016952	1229.518406	422.831934	460.054348	1176.090945	589.224259	-269.808359	1096.088380	239.186469	524.767806	1092.008819	367.732434
1562	15.61000	112.858390	956.054875	501.608048	185.293803	1479.177854	538.456397	205.255970	1583.724362	411.503394	39.742492	978.915958	477.819821	185.974401	933.193789	525.396125	85.782463	1125.606671	76.581596	186.706667	525.832935	392.732411	84.527906	722.443235	47.878750	100.855364	134.806466	461.734169	77.173021	687.510445	89.977467	83.307172	90.242334	498.885446	134.566375	577.289664	-92.961599	140.481339	51.225698	287.287965	1.072346	1443.783111	526.769752	354.419540	1429.364805	608.761307	-160.379200	1229.339635	422.350575	460.077205	1175.876173	588.878850	-270.192812	1095.963691	238.582402	524.559557	1091.685972	367.149383
1563	15.62000	112.721463	955.863219	501.190211	185.043893	1478.951000	538.483470	204.897663	1583.643810	411.672181	39.614070	978.700381	477.350454	185.828909	933.026057	525.029848	85.616371	1124.311441	75.626599	186.816362	525.799569	392.023854	83.996811	721.217438	45.894173	100.892757	134.907220	461.221801	76.644017	686.304284	87.972190	83.316533	90.359251	498.379815	133.985344	575.766368	-94.766335	140.645602	51.308406	286.838508	0.811946	1443.474803	526.649771	354.212423	1429.135102	608.804595	-160.741448	1229.160865	421.869216	460.100062	1175.661401	588.533442	-270.577265	1095.839003	237.978335	524.351308	1091.363124	366.566333
1564	15.63000	112.584536	955.671563	500.772373	184.793984	1478.724146	538.510543	204.539356	1583.563258	411.840968	39.485648	978.484805	476.881087	185.683417	932.858324	524.663571	85.450280	1123.016212	74.671602	186.926057	525.766204	391.315297	83.465717	719.991640	43.909596	100.930151	135.007973	460.709434	76.115013	685.098123	85.966913	83.325894	90.476167	497.874184	133.404314	574.243072	-96.571071	140.809865	51.391113	286.389052	0.551546	1443.166494	526.529790	354.005306	1428.905399	608.847883	-161.103696	1228.982094	421.387857	460.122919	1175.446630	588.188033	-270.961718	1095.714314	237.374268	524.143058	1091.040276	365.983282
1565	15.64000	112.447610	955.479907	500.354536	184.544074	1478.497293	538.537616	204.181048	1583.482705	412.009755	39.357226	978.269229	476.411720	185.537925	932.690591	524.297294	85.284189	1121.720982	73.716605	187.035751	525.732839	390.606739	82.934622	718.765843	41.925020	100.967544	135.108727	460.197066	75.586009	683.891962	83.961635	83.335255	90.593083	497.368553	132.823283	572.719776	-98.375807	140.974129	51.473820	285.939596	0.291145	1442.858185	526.409809	353.798189	1428.675695	608.891172	-161.465943	1228.803324	420.906498	460.145776	1175.231858	587.842625	-271.346170	1095.589625	236.770201	523.934809	1090.717429	365.400232
1566	15.65000	112.310683	955.288251	499.936699	184.294164	1478.270439	538.564690	203.822741	1583.402153	412.178542	39.228804	978.053653	475.942353	185.392433	932.522859	523.931017	85.118098	1120.425752	72.761608	187.145446	525.699473	389.898182	82.403527	717.540046	39.940443	101.004937	135.209481	459.684698	75.057005	682.685801	81.956358	83.344616	90.709999	496.862922	132.242253	571.196480	-100.180543	141.138392	51.556528	285.490139	0.030745	1442.549877	526.289828	353.591072	1428.445992	608.934460	-161.828191	1228.624553	420.425140	460.168633	1175.017086	587.497217	-271.730623	1095.464937	236.166134	523.726560	1090.394581	364.817181
1567	15.66000	112.173757	955.096596	499.518862	184.044254	1478.043585	538.591763	203.464434	1583.321601	412.347329	39.100382	977.838076	475.472986	185.246941	932.355126	523.564740	84.952007	1119.130522	71.806612	187.255141	525.666108	389.189625	81.872432	716.314248	37.955867	101.042330	135.310234	459.172330	74.528001	681.479639	79.951080	83.353977	90.826915	496.357291	131.661223	569.673183	-101.985279	141.302655	51.639235	285.040683	-0.229655	1442.241568	526.169847	353.383955	1428.216289	608.977748	-162.190439	1228.445783	419.943781	460.191490	1174.802314	587.151808	-272.115076	1095.340248	235.562067	523.518311	1090.071734	364.234131
1568	15.67000	112.036830	954.904940	499.101025	183.794344	1477.816732	538.618836	203.106126	1583.241049	412.516116	38.971961	977.622500	475.003619	185.101448	932.187394	523.198464	84.785915	1117.835293	70.851615	187.364836	525.632742	388.481068	81.341337	715.088451	35.971290	101.079724	135.410988	458.659963	73.998997	680.273478	77.945803	83.363337	90.943831	495.851660	131.080192	568.149887	-103.790015	141.466918	51.721943	284.591227	-0.490056	1441.933259	526.049866	353.176838	1427.986586	609.021036	-162.552687	1228.267012	419.462422	460.214347	1174.587543	586.806400	-272.499529	1095.215560	234.958000	523.310061	1089.748886	363.651080
1569	15.68000	111.899904	954.713284	498.683188	183.544434	1477.589878	538.645909	202.747819	1583.160497	412.684903	38.843539	977.406924	474.534252	184.955956	932.019661	522.832187	84.619824	1116.540063	69.896618	187.474531	525.599377	387.772511	80.810243	713.862654	33.986714	101.117117	135.511742	458.147595	73.469994	679.067317	75.940526	83.372698	91.060748	495.346029	130.499162	566.626591	-105.594751	141.631181	51.804650	284.141771	-0.750456	1441.624950	525.929885	352.969721	1427.756883	609.064324	-162.914935	1228.088242	418.981063	460.237204	1174.372771	586.460991	-272.883982	1095.090871	234.353932	523.101812	1089.426038	363.068030
1570	15.69000	111.762977	954.521628	498.265351	183.294525	1477.363024	538.672982	202.389512	1583.079945	412.853690	38.715117	977.191348	474.064885	184.810464	931.851929	522.465910	84.453733	1115.244833	68.941621	187.584226	525.566011	387.063954	80.279148	712.636856	32.002137	101.154510	135.612495	457.635227	72.940990	677.861156	73.935248	83.382059	91.177664	494.840398	129.918131	565.103295	-107.399487	141.795444	51.887357	283.692314	-1.010856	1441.316642	525.809904	352.762604	1427.527180	609.107613	-163.277183	1227.909471	418.499704	460.260061	1174.157999	586.115583	-273.268434	1094.966182	233.749865	522.893563	1089.103191	362.484980
